<?xml version="1.0" standalone="no"?>
<!DOCTYPE svg PUBLIC "-//W3C//DTD SVG 20010904//EN"
 "http://www.w3.org/TR/2001/REC-SVG-20010904/DTD/svg10.dtd">
<svg version="1.0" xmlns="http://www.w3.org/2000/svg"
 width="1965.000000pt" height="1685.000000pt" viewBox="0 0 1965.000000 1685.000000"
 preserveAspectRatio="xMidYMid meet">

<g transform="translate(0.000000,1685.000000) scale(0.100000,-0.100000)"
fill="#000000" stroke="none">
<path d="M9680 15844 c-1144 -78 -2139 -344 -3155 -844 -1062 -523 -2025
-1259 -2930 -2240 -99 -107 -493 -528 -875 -935 -382 -407 -759 -810 -839
-895 -80 -85 -167 -178 -194 -206 l-48 -51 792 -779 c435 -428 797 -780 803
-782 6 -1 59 46 118 105 l107 108 -682 670 c-375 369 -682 673 -682 677 0 3
432 467 959 1030 941 1003 1397 1473 1626 1674 613 538 1210 946 1875 1283
2060 1044 4358 1150 6475 299 944 -380 1817 -935 2615 -1663 224 -205 350
-333 859 -875 287 -305 772 -822 1079 -1148 306 -326 557 -597 557 -601 0 -4
-372 -373 -827 -819 -820 -805 -925 -912 -1033 -1060 -102 -140 -214 -341
-244 -439 l-7 -23 178 0 178 0 39 77 c50 96 135 226 213 324 34 42 487 494
1007 1005 520 511 946 932 946 936 0 7 -47 58 -1075 1153 -413 440 -806 861
-874 935 -299 325 -717 726 -1043 998 -1349 1125 -2860 1813 -4448 2026 -362
49 -510 58 -975 61 -242 1 -465 1 -495 -1z"/>
<path d="M10971 15081 c-10 -10 -24 -41 -29 -67 -6 -27 -79 -343 -161 -703
-83 -359 -151 -666 -151 -681 0 -15 10 -36 23 -47 23 -22 173 -63 231 -63 61
0 68 17 148 362 40 175 75 314 79 310 4 -4 38 -153 77 -331 77 -348 90 -385
152 -411 40 -16 93 -2 135 37 17 15 120 142 229 281 110 139 200 251 202 249
2 -1 -28 -138 -66 -302 -38 -165 -70 -317 -70 -337 0 -54 23 -72 127 -97 111
-28 159 -25 184 9 23 33 343 1423 335 1456 -4 14 -20 33 -37 43 -37 23 -166
46 -211 37 -75 -14 -64 -1 -541 -605 -71 -90 -130 -161 -132 -159 -3 2 -47
197 -99 434 -52 236 -102 448 -111 472 -23 56 -62 87 -142 112 -84 26 -147 26
-172 1z"/>
<path d="M8880 15040 c-207 -38 -225 -44 -274 -94 -83 -83 -81 -61 -62 -689
24 -807 24 -814 51 -845 l23 -26 88 12 c194 28 194 27 194 241 0 83 3 151 8
151 4 0 83 14 177 30 93 17 176 30 185 30 11 0 27 -34 54 -117 66 -201 81
-213 232 -187 54 9 109 22 121 30 46 29 43 40 -157 654 -105 322 -200 613
-211 646 -23 71 -75 136 -129 164 -62 32 -129 32 -300 0z m119 -357 c16 -13
45 -88 100 -258 43 -132 77 -241 76 -243 -4 -6 -279 -51 -284 -47 -7 8 -22
476 -16 502 13 56 81 80 124 46z"/>
<path d="M7705 14735 c-98 -38 -115 -53 -115 -99 0 -38 484 -1372 506 -1398
25 -26 75 -23 173 13 90 32 131 64 131 102 0 27 -483 1359 -505 1393 -22 34
-79 31 -190 -11z"/>
<path d="M12884 14554 c-33 -37 -595 -1319 -597 -1361 -1 -43 16 -60 99 -98
149 -68 185 -67 219 3 69 145 568 1294 572 1320 4 23 0 38 -13 54 -22 25 -169
94 -219 104 -30 5 -39 2 -61 -22z"/>
<path d="M6984 14445 c-22 -8 -157 -74 -300 -147 -194 -100 -271 -144 -306
-178 -58 -57 -75 -109 -59 -188 14 -70 515 -1059 567 -1120 47 -55 87 -75 149
-75 74 0 104 12 390 157 209 105 270 141 312 181 96 94 93 167 -18 384 -38 74
-76 142 -85 152 -29 32 -78 24 -173 -27 -47 -26 -94 -54 -103 -62 -28 -24 -21
-65 24 -156 23 -47 40 -87 38 -89 -3 -3 -76 -40 -163 -84 l-157 -79 -136 270
c-75 149 -168 330 -206 403 l-69 132 160 81 c89 44 163 80 166 80 3 0 25 -41
50 -90 52 -103 75 -130 110 -130 35 0 222 95 235 119 20 38 9 72 -65 215 -93
176 -123 220 -174 246 -48 24 -127 26 -187 5z"/>
<path d="M13482 14273 c-44 -45 -702 -1275 -702 -1312 0 -17 8 -39 18 -49 32
-32 656 -362 684 -362 40 0 71 35 123 136 49 95 52 126 17 157 -10 8 -105 62
-212 120 -107 58 -194 110 -193 114 1 4 125 238 277 520 179 331 276 522 276
541 0 17 -9 37 -22 49 -32 29 -194 113 -219 113 -11 0 -33 -12 -47 -27z"/>
<path d="M5688 14030 c-59 -43 -111 -88 -117 -99 -12 -21 -13 -206 -2 -254 l6
-28 95 79 c142 118 134 104 139 244 2 66 -1 124 -6 129 -5 5 -54 -25 -115 -71z"/>
<path d="M5709 13708 c-99 -75 -124 -106 -115 -142 10 -39 891 -1168 925
-1185 36 -17 69 -2 161 72 80 65 99 95 84 134 -12 33 -840 1102 -890 1151 -19
18 -44 32 -58 32 -15 0 -58 -25 -107 -62z"/>
<path d="M14565 13629 c-22 -11 -857 -1097 -892 -1160 -32 -59 -19 -85 84
-164 93 -70 131 -81 172 -47 11 9 216 274 456 587 438 574 448 589 429 640 -6
16 -139 121 -181 143 -26 14 -41 14 -68 1z"/>
<path d="M15020 13278 c-14 -5 -58 -46 -97 -91 -63 -70 -73 -87 -73 -118 0
-34 8 -44 89 -119 l90 -82 -390 -426 c-215 -235 -397 -440 -406 -456 -21 -41
-4 -74 76 -147 83 -76 117 -94 153 -80 15 5 197 197 419 440 217 237 397 431
402 431 5 0 45 -33 89 -74 117 -110 130 -109 241 10 70 75 89 109 80 143 -4
16 -438 423 -588 552 -28 23 -55 29 -85 17z"/>
<path d="M4825 12991 c-16 -10 -60 -50 -97 -89 -70 -72 -79 -96 -55 -138 10
-19 874 -923 979 -1026 49 -48 91 -51 140 -11 88 72 519 499 524 519 10 38 -6
66 -84 147 -68 70 -79 77 -114 77 -34 0 -49 -9 -136 -89 -53 -49 -128 -121
-167 -160 -38 -39 -73 -71 -77 -71 -4 0 -183 183 -397 408 -215 224 -405 417
-423 430 -38 27 -54 27 -93 3z"/>
<path d="M4341 12479 c-54 -28 -110 -81 -326 -309 -221 -233 -254 -299 -205
-408 10 -23 43 -68 72 -98 99 -105 790 -759 830 -787 86 -58 166 -57 254 4 70
48 456 458 484 515 33 67 32 137 -3 197 -36 61 -818 815 -903 871 -63 41 -141
46 -203 15z m484 -744 c138 -131 252 -242 253 -247 4 -10 -239 -260 -249 -256
-11 4 -639 607 -640 614 -1 3 54 64 121 136 l123 130 71 -70 c39 -38 184 -176
321 -307z"/>
<path d="M15814 12366 c-18 -8 -277 -188 -577 -401 -571 -405 -584 -416 -559
-468 17 -36 133 -158 160 -168 44 -17 91 2 205 82 l112 79 132 -137 c73 -76
132 -142 133 -146 0 -5 -36 -54 -80 -110 -84 -106 -106 -151 -96 -193 4 -13
41 -60 84 -104 90 -93 112 -99 167 -47 47 44 812 1013 835 1057 29 56 34 120
16 184 -15 49 -32 73 -151 200 -155 165 -188 186 -287 186 -35 -1 -77 -7 -94
-14z m115 -402 c55 -46 48 -61 -125 -281 -86 -109 -159 -200 -161 -203 -4 -4
-202 201 -202 210 0 3 70 55 156 115 304 213 281 202 332 159z"/>
<path d="M6595 11930 l-190 -190 2505 0 2505 0 -190 190 -190 190 -2125 0
-2125 0 -190 -190z"/>
<path d="M16704 11580 c-32 -13 -1067 -987 -1083 -1019 -11 -24 -11 -33 3 -63
25 -53 158 -178 188 -178 32 0 78 35 217 168 l114 108 48 -52 c61 -68 83 -109
75 -145 -3 -16 -41 -103 -86 -195 -44 -92 -80 -180 -80 -195 0 -21 20 -51 83
-119 132 -146 149 -140 260 78 57 115 77 163 77 193 0 36 2 39 19 29 32 -16
113 -12 146 8 59 37 580 534 607 581 37 62 40 167 6 229 -28 51 -500 555 -534
571 -29 13 -32 13 -60 1z m126 -564 c56 -63 102 -118 102 -121 0 -4 -71 -73
-158 -152 l-158 -145 -108 113 c-59 63 -107 117 -108 120 0 9 312 299 321 299
4 0 53 -51 109 -114z"/>
<path d="M3472 11540 c-18 -4 -48 -18 -66 -31 -32 -24 -491 -507 -534 -563
-25 -32 -30 -93 -9 -118 18 -22 1007 -950 1041 -976 47 -36 79 -29 143 31 76
71 113 124 113 161 0 27 -18 48 -132 157 l-132 126 167 176 c91 97 176 195
189 219 26 50 31 154 10 204 -8 19 -134 144 -313 313 -268 251 -306 282 -351
296 -56 16 -75 17 -126 5z m328 -628 l95 -89 -49 -54 c-27 -30 -83 -89 -124
-132 l-75 -77 -51 45 c-28 24 -109 100 -179 167 l-128 123 123 131 123 131 85
-78 c47 -43 128 -118 180 -167z"/>
<path d="M9850 11544 c-19 -2 -80 -9 -135 -15 -208 -22 -427 -68 -665 -138
l-103 -31 -1461 0 -1461 0 -183 -183 c-100 -100 -182 -186 -182 -190 0 -4 565
-7 1256 -7 l1257 0 -117 -81 c-63 -45 -172 -128 -240 -185 l-125 -104 -1208 0
-1208 0 -190 -190 -190 -190 1218 -2 1217 -3 -72 -96 c-40 -52 -100 -136 -133
-187 l-60 -92 -1275 0 -1275 0 -190 -190 -190 -190 1359 0 c1289 0 1358 -1
1353 -17 -4 -10 -35 -90 -71 -178 -36 -88 -66 -166 -66 -172 0 -10 -302 -13
-1478 -13 l-1477 0 -190 -190 -190 -190 1614 0 1613 0 -5 -27 c-5 -25 -40
-234 -53 -320 l-5 -33 -1772 0 -1772 0 -185 -185 -185 -185 1948 0 1947 0 0
-37 c0 -21 5 -105 10 -188 50 -753 315 -1438 783 -2026 111 -139 165 -195 688
-716 l445 -443 251 0 c250 0 251 0 353 -30 393 -117 656 -155 1075 -155 418 0
666 36 1065 154 l103 31 1461 0 1461 0 183 183 c100 100 182 186 182 190 0 4
-566 7 -1257 7 l-1257 0 86 58 c107 73 188 136 305 234 l92 78 1208 0 1208 0
190 190 190 190 -1217 2 -1216 3 79 105 c43 58 102 142 131 187 l53 82 1275 1
1275 0 190 190 190 190 -1358 0 c-746 0 -1357 4 -1357 8 0 4 20 52 44 107 24
55 56 137 72 182 l29 83 1475 0 1475 0 190 190 190 190 -1614 0 -1613 0 6 23
c3 12 15 83 26 157 11 74 23 150 26 168 l5 32 1772 0 1772 0 183 183 c100 100
182 186 182 190 0 4 -875 7 -1944 7 l-1943 0 -7 133 c-43 830 -322 1550 -841
2173 -49 59 -312 329 -585 600 l-495 493 -250 1 -250 0 -155 45 c-167 49 -387
96 -570 121 -109 15 -633 28 -720 18z m710 -63 c621 -81 1186 -309 1675 -676
713 -534 1205 -1308 1369 -2153 55 -284 61 -346 61 -697 0 -266 -4 -353 -18
-450 -103 -689 -347 -1259 -754 -1765 -596 -740 -1429 -1202 -2373 -1317 -195
-23 -609 -23 -800 0 -698 87 -1313 349 -1847 785 -658 539 -1109 1307 -1252
2132 -41 239 -46 300 -46 615 0 315 5 376 46 615 186 1073 888 2028 1861 2535
449 233 885 355 1423 399 123 10 506 -4 655 -23z"/>
<path d="M9920 11393 c-1528 -90 -2819 -1187 -3158 -2683 -115 -507 -110
-1058 13 -1570 159 -655 533 -1284 1028 -1728 567 -508 1213 -798 1972 -884
142 -16 548 -16 690 0 372 43 713 132 1031 272 975 427 1703 1287 1963 2315
115 459 134 980 51 1445 -149 829 -606 1587 -1271 2106 -663 517 -1488 776
-2319 727z m236 -345 l30 -93 110 -5 109 -5 -80 -59 c-44 -32 -83 -62 -87 -65
-5 -4 6 -49 23 -100 17 -50 29 -94 26 -97 -3 -3 -39 20 -81 50 -41 31 -80 56
-86 56 -5 0 -44 -25 -86 -56 -41 -31 -78 -53 -81 -51 -3 3 9 48 26 98 17 51
28 96 23 100 -4 3 -43 33 -87 65 l-80 59 109 5 110 5 30 93 c17 50 33 92 36
92 3 0 19 -42 36 -92z m744 -123 c0 -33 4 -65 8 -71 4 -6 51 -22 105 -35 53
-12 94 -26 90 -30 -5 -4 -46 -23 -93 -43 l-85 -35 2 -105 c2 -58 1 -106 -1
-106 -2 0 -34 36 -71 79 l-66 79 -96 -40 c-52 -22 -96 -38 -98 -36 -2 2 21 43
51 91 l55 88 -66 79 c-36 43 -65 80 -65 83 0 3 42 -6 93 -19 50 -13 97 -24
102 -24 6 0 35 41 65 90 l55 90 7 -37 c4 -21 7 -65 8 -98z m-1488 40 c29 -47
59 -85 66 -85 8 0 50 9 94 20 44 12 84 20 89 18 5 -2 -20 -38 -56 -81 -51 -62
-63 -82 -55 -95 5 -10 29 -48 54 -87 24 -38 43 -71 41 -73 -2 -3 -47 13 -99
34 -53 20 -97 35 -99 33 -3 -3 -118 -140 -133 -158 -2 -2 -1 45 3 106 l6 110
-97 38 c-57 23 -92 42 -84 45 7 4 55 17 106 30 l92 22 0 52 c0 52 10 156 16
156 1 0 26 -38 56 -85z m-533 -285 c51 28 95 50 97 50 3 0 -16 -40 -41 -90
-25 -49 -45 -96 -45 -104 0 -8 32 -42 70 -76 39 -34 70 -65 70 -69 0 -4 -39
-2 -87 5 -49 8 -96 14 -105 14 -12 0 -32 -28 -64 -91 -25 -50 -47 -89 -49 -87
-2 2 -11 46 -20 98 -9 52 -21 98 -27 101 -6 4 -53 12 -106 19 -109 15 -109 14
15 78 41 21 73 43 73 52 0 8 -7 53 -15 100 -8 47 -15 89 -15 95 0 5 35 -25 78
-67 l77 -77 94 49z m2717 -3 c-9 -46 -16 -88 -16 -94 0 -6 41 -32 91 -58 50
-26 88 -49 86 -51 -4 -4 -175 -33 -198 -34 -3 0 -11 -37 -18 -82 -22 -145 -18
-143 -73 -34 -48 96 -49 97 -81 91 -93 -15 -170 -25 -173 -22 -2 2 30 36 71
77 l74 73 -45 90 c-25 49 -43 91 -40 94 3 3 46 -17 95 -43 l91 -49 73 73 c39
40 73 68 75 63 2 -6 -4 -48 -12 -94z m389 -367 c3 -5 22 -22 43 -38 l37 -30
90 53 c49 29 91 52 93 51 1 -2 -16 -44 -38 -93 -22 -50 -40 -95 -40 -101 0 -6
8 -17 18 -24 10 -7 45 -37 78 -66 l59 -53 -109 3 -110 3 -40 -93 c-45 -105
-44 -106 -72 30 l-18 86 -65 6 c-36 4 -86 9 -110 13 l-43 6 81 46 c45 26 86
52 93 59 10 10 -5 111 -29 196 -4 16 3 13 36 -13 22 -18 43 -36 46 -41z
m-3665 -48 c-11 -51 -20 -94 -20 -96 0 -3 41 -28 90 -57 50 -28 89 -53 87 -55
-2 -2 -48 -8 -102 -15 -55 -6 -102 -15 -106 -20 -3 -5 -13 -50 -23 -99 -11
-50 -22 -90 -26 -90 -4 0 -25 42 -47 93 -22 50 -44 91 -49 91 -5 -1 -52 -5
-104 -8 l-95 -7 77 73 77 73 -39 85 c-21 47 -39 90 -39 97 -1 7 37 -10 83 -38
46 -27 90 -49 98 -49 7 1 45 30 83 65 39 35 71 60 73 56 1 -5 -6 -49 -18 -99z
m2139 63 c528 -78 1009 -326 1382 -713 403 -418 632 -938 668 -1517 59 -954
-471 -1861 -1334 -2285 -172 -84 -298 -131 -469 -175 -215 -54 -342 -69 -586
-69 -244 0 -371 15 -586 69 -828 211 -1495 864 -1720 1685 -68 247 -79 334
-79 635 0 235 3 286 22 390 46 250 115 458 225 679 108 216 240 403 410 581
398 417 912 669 1498 734 116 13 442 5 569 -14z m2033 -518 c69 -105 55 -99
165 -66 53 16 98 27 100 25 2 -1 -24 -38 -57 -82 -33 -43 -60 -81 -60 -85 0
-4 25 -43 55 -87 30 -44 55 -83 55 -86 0 -3 -44 10 -97 29 -54 19 -99 35 -100
35 -1 0 -32 -39 -68 -87 l-65 -86 0 111 0 110 -95 32 c-52 17 -95 35 -95 38 0
4 45 20 100 36 l100 28 0 105 c0 67 4 102 10 98 6 -3 29 -34 52 -68z m-4672
-41 l0 -105 88 -26 c113 -34 116 -35 111 -40 -3 -2 -47 -19 -99 -38 l-95 -33
4 -107 c2 -59 1 -107 -2 -107 -3 0 -34 38 -68 85 -46 61 -68 84 -79 79 -22 -9
-183 -64 -187 -64 -3 0 24 40 58 89 l61 89 -67 86 c-37 47 -65 86 -62 86 2 0
48 -13 102 -30 54 -16 101 -27 104 -25 4 2 31 40 61 84 30 44 58 81 63 81 4 0
7 -47 7 -104z m5053 -591 l35 -90 106 2 c58 1 106 0 106 -2 0 -3 -135 -115
-158 -131 -2 -1 12 -46 32 -100 20 -53 35 -98 33 -100 -2 -2 -40 21 -85 51
-45 30 -85 55 -89 55 -5 0 -26 -15 -49 -33 -132 -105 -127 -102 -120 -79 4 12
18 60 31 106 l23 85 -90 59 -91 60 74 6 c41 3 90 7 109 9 34 2 34 2 58 87 28
104 31 114 37 109 2 -3 20 -45 38 -94z m-5422 -22 l23 -92 86 -6 c47 -3 96 -7
110 -8 20 -2 7 -13 -67 -62 l-90 -59 28 -103 c16 -62 23 -100 16 -96 -7 3 -45
33 -85 66 l-73 59 -86 -57 c-47 -31 -87 -54 -89 -52 -3 2 11 46 31 96 19 51
33 96 31 100 -3 4 -39 34 -81 67 l-75 59 107 5 108 5 34 93 c19 51 37 89 41
85 4 -4 18 -49 31 -100z m5654 -771 c2 -2 47 -12 101 -23 53 -10 99 -20 101
-22 2 -2 -40 -24 -93 -48 l-96 -44 6 -52 c3 -29 9 -78 12 -108 l7 -55 -76 77
-75 77 -88 -39 c-48 -22 -92 -42 -97 -44 -5 -2 13 39 42 92 l51 95 -70 75
c-38 41 -70 77 -70 80 0 2 39 -4 88 -14 48 -10 95 -18 104 -19 10 0 29 22 49
58 17 31 41 73 53 92 l21 35 13 -105 c7 -57 14 -106 17 -108z m-5869 101 c26
-49 48 -89 48 -90 1 -1 46 7 101 17 54 11 101 18 103 15 3 -2 -25 -35 -62 -73
-36 -38 -66 -74 -66 -81 0 -7 20 -49 45 -94 25 -44 43 -82 41 -85 -3 -2 -46
15 -96 38 l-90 43 -71 -77 c-39 -42 -73 -75 -75 -73 -2 2 2 49 9 105 l13 101
-93 43 c-51 24 -93 46 -93 49 0 3 45 14 100 24 112 20 103 11 115 130 7 62 14
95 20 95 2 0 25 -39 51 -87z m5895 -730 c-7 -54 -8 -99 -4 -101 4 -2 49 -22
98 -46 l90 -43 -60 -12 c-33 -7 -81 -17 -107 -23 l-47 -9 -6 -67 c-4 -37 -10
-85 -14 -107 l-7 -40 -49 89 c-28 49 -55 90 -60 93 -6 2 -55 -5 -108 -15 -53
-10 -97 -17 -97 -14 0 2 32 38 72 79 59 61 70 77 62 91 -30 49 -95 172 -91
172 2 0 47 -20 99 -44 l95 -44 68 75 c37 41 70 72 72 69 3 -3 0 -49 -6 -103z
m-5821 -33 c25 13 69 33 98 46 l53 24 -37 -67 c-21 -38 -43 -77 -51 -88 -7
-11 -13 -25 -13 -31 0 -7 32 -46 71 -88 39 -42 65 -76 57 -76 -7 1 -53 9 -103
20 -54 11 -94 15 -99 10 -5 -5 -31 -49 -57 -97 l-47 -87 -7 45 c-3 24 -9 73
-13 109 l-7 65 -102 19 c-57 11 -103 22 -103 25 0 3 40 24 88 45 48 22 90 42
93 45 4 3 3 33 -1 66 -4 33 -10 80 -13 105 l-6 45 77 -79 76 -78 46 22z m5463
-620 c41 -33 78 -60 83 -60 5 0 43 22 84 48 41 26 81 51 87 56 7 4 -1 -30 -18
-76 -48 -128 -50 -117 33 -183 40 -32 78 -62 83 -68 6 -6 -30 -7 -100 -3
l-110 7 -39 -103 -39 -103 -30 108 -29 107 -87 1 c-135 1 -138 6 -37 69 47 30
86 58 86 63 0 4 -11 48 -25 97 -27 95 -28 100 -20 100 3 0 38 -27 78 -60z
m-5228 -56 c-31 -112 -39 -95 77 -167 37 -23 68 -45 68 -48 0 -4 -45 -8 -101
-11 -64 -2 -103 -8 -108 -16 -4 -7 -18 -53 -31 -102 -12 -50 -26 -88 -29 -84
-3 3 -22 47 -41 97 l-35 91 -104 -3 c-60 -1 -101 1 -98 6 3 5 39 36 80 67 l74
59 -37 98 c-21 55 -35 99 -32 99 4 0 45 -25 91 -55 l84 -54 41 32 c22 18 58
46 80 64 22 18 42 30 44 29 2 -2 -9 -48 -23 -102z m4955 -559 c30 -38 55 -72
56 -74 2 -1 45 11 96 28 51 17 97 31 101 31 4 0 -15 -34 -43 -75 -28 -41 -53
-82 -56 -89 -3 -9 20 -49 56 -95 33 -45 55 -81 48 -81 -7 0 -49 11 -93 25 -44
14 -86 25 -92 25 -7 0 -39 -39 -70 -87 l-58 -86 -2 89 c-4 136 2 127 -112 160
-55 16 -97 32 -93 35 4 4 25 12 47 19 22 7 64 21 93 32 l52 19 0 107 c0 58 4
102 8 97 5 -6 33 -41 62 -80z m-4662 -31 l-3 -107 55 -18 c30 -10 75 -27 100
-36 l45 -17 -100 -31 -100 -31 -2 -55 c-2 -29 -5 -78 -9 -107 l-6 -53 -59 85
c-33 47 -63 86 -67 86 -4 0 -29 -7 -57 -15 -166 -51 -157 -53 -100 20 17 22
44 56 58 76 l27 36 -61 86 c-33 48 -55 87 -50 87 6 0 47 -13 93 -30 45 -16 87
-30 93 -30 7 0 40 36 74 80 34 44 64 80 67 80 3 0 4 -48 2 -106z m4243 -492
c43 -99 29 -93 179 -80 l75 7 -79 -74 -79 -73 41 -93 c22 -51 39 -95 37 -97
-2 -2 -43 20 -91 48 -57 34 -93 49 -100 44 -7 -5 -42 -36 -78 -68 -37 -32 -68
-57 -71 -55 -2 2 5 40 15 84 29 120 31 114 -65 170 -46 28 -85 53 -85 56 0 4
46 11 102 15 l103 9 23 103 c13 57 27 101 30 97 3 -3 23 -45 43 -93z m-3798
-108 c3 -6 52 -15 107 -19 55 -3 98 -10 95 -15 -3 -5 -42 -30 -88 -56 -45 -25
-83 -48 -85 -49 -1 -1 7 -44 18 -95 11 -51 19 -97 18 -102 -2 -5 -37 20 -78
56 -41 36 -77 66 -80 66 -3 0 -43 -23 -89 -50 -47 -27 -87 -48 -89 -46 -2 3
15 46 38 97 l41 93 -53 47 c-29 25 -66 58 -83 73 l-30 27 50 -5 c187 -19 172
-20 180 6 5 12 24 57 43 98 l34 75 22 -95 c12 -52 25 -100 29 -106z m3267
-294 c18 -114 11 -106 98 -119 150 -23 147 -17 43 -71 -50 -26 -94 -49 -96
-52 -3 -2 4 -50 14 -106 10 -56 16 -102 12 -102 -3 0 -38 33 -78 72 l-73 73
-89 -48 c-48 -26 -91 -47 -95 -47 -3 0 15 43 42 96 l47 96 -80 74 c-44 41 -73
74 -65 74 14 0 111 -14 173 -25 26 -4 30 0 74 90 28 56 50 90 54 82 4 -6 12
-46 19 -87z m-2760 -1 l45 -91 50 6 c28 3 75 9 105 12 l55 6 -75 -76 -75 -76
48 -95 c26 -52 45 -95 43 -95 -2 0 -42 20 -87 45 -46 24 -90 45 -98 45 -7 0
-46 -32 -87 -72 -68 -66 -74 -69 -69 -42 3 16 12 64 19 107 l13 77 -77 41
c-128 66 -128 64 -7 79 120 15 108 1 128 138 7 45 15 82 19 82 3 0 26 -41 50
-91z m635 -283 l40 -48 93 37 c51 21 95 35 97 33 3 -2 -18 -41 -45 -85 -28
-45 -50 -85 -50 -90 0 -4 29 -42 64 -83 36 -41 61 -76 56 -78 -4 -2 -51 8
-104 21 l-95 25 -53 -89 c-29 -49 -56 -89 -59 -89 -3 0 -9 46 -13 102 -3 56
-8 103 -10 106 -3 2 -49 15 -103 29 -54 13 -99 26 -101 27 -1 2 43 20 98 42
l101 39 -6 85 c-4 47 -8 96 -11 110 -4 24 -3 23 28 -10 18 -20 51 -57 73 -84z
m1514 8 l-4 -106 85 -35 c47 -19 89 -38 93 -43 5 -4 -36 -18 -90 -32 l-98 -24
-7 -45 c-3 -24 -7 -70 -7 -101 -1 -32 -5 -58 -10 -58 -4 0 -32 38 -60 85 -29
47 -56 85 -59 85 -4 0 -50 -11 -102 -25 -52 -13 -96 -23 -97 -21 -2 1 27 38
63 80 36 43 63 83 60 91 -2 7 -27 50 -55 95 -58 92 -61 91 74 33 78 -33 79
-34 95 -15 49 63 116 142 119 142 2 0 2 -48 0 -106z m-889 -74 c36 -26 70 -50
76 -53 6 -4 49 20 94 53 46 33 85 59 87 57 1 -2 -11 -43 -27 -92 -17 -49 -30
-94 -30 -100 0 -6 37 -38 83 -71 l82 -59 -105 -3 -106 -3 -33 -99 c-18 -55
-34 -100 -36 -100 -2 0 -18 45 -36 100 l-33 99 -106 3 -105 3 83 60 c45 33 82
65 82 70 0 6 -13 51 -30 100 -16 49 -30 90 -30 92 0 6 20 -6 90 -57z"/>
<path d="M9955 10254 c-717 -58 -1353 -431 -1751 -1025 -453 -678 -510 -1559
-148 -2288 278 -560 756 -978 1340 -1170 749 -247 1553 -100 2174 396 369 295
654 734 775 1195 61 235 69 304 69 593 0 288 -8 358 -69 591 -65 248 -162 462
-310 684 -363 546 -931 906 -1585 1004 -104 16 -399 28 -495 20z m560 -674
c212 -261 396 -484 408 -495 12 -11 289 -123 615 -249 579 -224 592 -230 579
-250 -8 -12 -165 -255 -349 -541 l-335 -520 -32 -615 c-18 -338 -35 -627 -39
-641 l-7 -27 -618 164 -618 164 -602 -159 c-331 -88 -611 -161 -622 -163 -19
-3 -21 14 -55 637 -35 635 -35 640 -60 680 -13 22 -170 265 -347 540 -178 275
-320 501 -316 503 5 1 274 105 598 230 l590 229 405 496 c222 274 408 496 412
495 4 -2 181 -217 393 -478z"/>
<path d="M1281 10725 c-117 -175 -119 -332 -7 -504 71 -109 189 -232 750 -781
295 -289 557 -550 581 -580 25 -30 55 -75 67 -99 26 -53 35 -137 19 -181 -8
-25 15 -7 125 97 75 70 145 141 156 156 l21 29 -84 85 c-46 46 -374 369 -728
716 -649 638 -771 767 -831 878 -39 74 -49 154 -27 217 8 23 13 42 12 42 -2 0
-26 -34 -54 -75z"/>
<path d="M17811 9422 c-760 -746 -973 -966 -1024 -1052 l-18 -30 28 0 c23 0
32 8 48 42 25 52 131 173 276 313 343 332 1315 1292 1384 1366 69 74 153 179
143 179 -2 0 -378 -368 -837 -818z"/>
<path d="M2141 7945 c-17 -24 -46 -75 -64 -112 -59 -127 -38 -254 58 -342 55
-51 107 -77 203 -103 69 -18 119 -21 492 -28 282 -5 428 -11 455 -20 124 -38
194 -115 224 -245 6 -27 25 -147 42 -265 127 -906 408 -1717 847 -2450 1018
-1700 2786 -2803 4832 -3015 481 -49 1035 -47 1515 6 1667 184 3178 976 4191
2196 121 146 136 167 60 83 -141 -155 -493 -496 -631 -611 -1005 -834 -2196
-1329 -3525 -1464 -376 -38 -911 -44 -1265 -15 -2169 179 -4006 1307 -5054
3105 -469 803 -777 1804 -843 2735 l-12 169 -580 4 c-425 3 -594 7 -631 17
-75 19 -166 63 -209 101 -72 63 -104 173 -77 267 5 17 8 32 7 32 -1 0 -17 -20
-35 -45z"/>
<path d="M4010 7542 c0 -125 55 -566 105 -839 33 -178 122 -539 179 -720 230
-736 567 -1366 1046 -1955 148 -182 531 -569 710 -718 976 -811 2163 -1285
3520 -1407 271 -24 839 -24 1110 0 867 78 1639 292 2365 654 1265 633 2208
1649 2731 2946 24 60 44 112 44 115 0 4 -144 -137 -321 -313 -303 -303 -324
-326 -386 -430 -760 -1260 -1971 -2134 -3478 -2509 -1628 -404 -3405 -132
-4773 731 -645 407 -1178 926 -1597 1553 -529 795 -844 1730 -938 2790 l-12
135 -152 3 -153 3 0 -39z"/>
<path d="M16997 6792 c-372 -372 -677 -685 -677 -694 0 -9 -2 -23 -5 -31 -8
-19 1232 1226 1281 1288 45 56 87 115 82 115 -2 0 -308 -305 -681 -678z"/>
<path d="M9015 3980 l190 -190 2125 0 2125 0 190 190 190 190 -2505 0 -2505 0
190 -190z"/>
<path d="M7803 3594 c-6 -3 -37 -66 -68 -140 -53 -124 -56 -136 -42 -157 9
-14 60 -41 146 -76 72 -30 131 -57 131 -60 0 -18 -45 -111 -54 -111 -6 0 -46
14 -89 32 -74 30 -77 33 -72 58 6 25 1 29 -56 54 -34 15 -63 25 -64 24 -11
-17 -45 -111 -45 -126 0 -10 8 -26 18 -34 32 -29 363 -160 387 -154 25 6 40
34 100 186 50 125 50 126 -122 197 l-132 55 20 52 c11 28 23 54 27 57 4 4 44
-9 90 -28 80 -34 83 -37 77 -63 -6 -25 -2 -29 56 -54 34 -15 63 -25 65 -24 1
2 12 27 23 56 23 57 25 80 13 100 -10 15 -356 162 -380 161 -9 0 -22 -3 -29
-5z"/>
<path d="M12215 3494 c-181 -76 -215 -95 -215 -121 0 -23 189 -475 207 -495 9
-10 23 -18 32 -18 26 0 385 152 399 168 6 9 12 24 12 34 0 28 -190 482 -208
496 -9 6 -23 12 -31 11 -9 0 -97 -34 -196 -75z m209 -239 c38 -91 67 -167 65
-169 -8 -8 -190 -78 -193 -75 -8 11 -136 332 -134 335 9 8 165 72 179 73 11 1
35 -47 83 -164z"/>
<path d="M8475 3504 c-16 -8 -40 -28 -53 -44 l-22 -28 140 -47 c78 -26 157
-47 177 -47 37 0 76 23 100 59 14 21 11 22 -141 72 -85 28 -158 51 -163 51 -4
0 -21 -7 -38 -16z"/>
<path d="M8407 3340 c-24 -19 -297 -460 -297 -480 0 -5 24 -16 53 -26 28 -9
57 -19 63 -21 6 -2 25 18 42 46 l31 50 119 -40 118 -40 -4 -58 -4 -58 63 -22
c34 -11 64 -19 66 -18 6 7 53 464 53 522 0 79 -14 92 -140 134 -112 37 -129
38 -163 11z m152 -134 c11 -8 12 -30 7 -101 -4 -49 -9 -106 -12 -126 l-6 -35
-91 32 c-51 18 -91 37 -90 42 5 23 97 169 119 189 24 22 44 22 73 -1z"/>
<path d="M11583 3267 c-35 -11 -63 -26 -63 -31 0 -6 39 -127 86 -269 72 -215
90 -260 109 -269 19 -8 57 1 212 52 103 35 190 64 192 66 7 6 -33 104 -44 104
-6 0 -70 -20 -142 -44 l-132 -44 -76 229 c-42 126 -77 229 -78 228 -1 0 -30
-10 -64 -22z"/>
<path d="M8913 3210 c-26 -10 -25 -9 -89 -301 -28 -131 -44 -226 -40 -242 7
-31 16 -34 243 -82 175 -38 216 -39 227 -8 14 36 106 470 106 499 0 17 -7 37
-15 44 -8 6 -97 30 -197 51 -101 22 -190 41 -198 44 -8 2 -25 0 -37 -5z m292
-172 c4 -4 -10 -86 -31 -183 -31 -144 -40 -174 -53 -171 -9 3 -54 13 -101 22
-47 10 -86 19 -88 20 -3 2 63 316 73 350 3 11 186 -23 200 -38z"/>
<path d="M11300 3197 c-25 -5 -46 -11 -47 -12 -2 -1 21 -106 51 -234 29 -127
50 -234 46 -236 -11 -7 -192 -46 -196 -42 -2 2 -26 102 -54 223 -28 120 -52
224 -54 231 -4 8 -21 7 -68 -4 -35 -9 -64 -17 -66 -19 -8 -6 121 -540 133
-553 20 -20 49 -17 250 29 174 40 215 57 215 87 0 8 -27 132 -60 275 -33 143
-60 261 -60 264 0 6 -41 3 -90 -9z"/>
<path d="M10469 3071 c-49 -7 -73 -21 -90 -54 -9 -16 -78 -492 -79 -539 0 -14
8 -18 39 -18 21 0 52 3 68 6 28 5 31 10 39 62 l9 57 65 6 c36 4 92 9 125 10
l59 4 17 -54 16 -55 64 3 c35 1 67 5 71 7 8 5 8 4 -83 294 -48 153 -80 239
-95 255 -21 23 -30 25 -101 24 -43 -1 -99 -5 -124 -8z m110 -118 c22 -18 96
-229 83 -237 -4 -2 -49 -7 -99 -11 -75 -6 -93 -5 -93 6 0 8 7 61 15 119 12 84
19 109 36 123 12 9 25 17 29 17 4 0 17 -8 29 -17z"/>
<path d="M9736 2843 c-4 -126 -9 -261 -12 -300 l-6 -73 70 0 70 0 7 94 7 94
137 -5 c107 -4 140 -2 154 9 16 12 19 35 24 190 l6 176 -24 15 c-18 11 -72 16
-225 21 l-201 6 -7 -227z m312 15 l-3 -93 -85 4 c-47 2 -86 5 -88 6 -2 2 0 42
4 89 l7 86 84 0 84 0 -3 -92z"/>
</g>
</svg>
